<mxfile host="65bd71144e">
    <diagram id="hCjVFWW6E4707KVm41QB" name="Page-1">
        <mxGraphModel dx="811" dy="450" grid="1" gridSize="10" guides="1" tooltips="1" connect="1" arrows="1" fold="1" page="1" pageScale="1" pageWidth="827" pageHeight="1169" math="0" shadow="0">
            <root>
                <mxCell id="0"/>
                <mxCell id="1" parent="0"/>
                <mxCell id="2" value="" style="rounded=0;whiteSpace=wrap;html=1;" parent="1" vertex="1">
                    <mxGeometry x="170" y="90" width="610" height="1590" as="geometry"/>
                </mxCell>
                <mxCell id="3" value="" style="rounded=0;whiteSpace=wrap;html=1;" parent="1" vertex="1">
                    <mxGeometry x="170" y="20" width="610" height="170" as="geometry"/>
                </mxCell>
                <mxCell id="4" value="Acceuil" style="rounded=0;whiteSpace=wrap;html=1;" parent="1" vertex="1">
                    <mxGeometry x="170" y="120" width="150" height="40" as="geometry"/>
                </mxCell>
                <mxCell id="5" value="&lt;font style=&quot;font-size: 36px;&quot;&gt;HO&amp;amp;VAN&lt;/font&gt;" style="text;html=1;strokeColor=none;fillColor=none;align=center;verticalAlign=middle;whiteSpace=wrap;rounded=0;" parent="1" vertex="1">
                    <mxGeometry x="403.25" y="60" width="147.5" height="40" as="geometry"/>
                </mxCell>
                <mxCell id="6" value="LOGO" style="ellipse;whiteSpace=wrap;html=1;aspect=fixed;fontSize=18;" parent="1" vertex="1">
                    <mxGeometry x="190" y="50" width="60" height="60" as="geometry"/>
                </mxCell>
                <mxCell id="7" value="Carousselle photo" style="rounded=0;whiteSpace=wrap;html=1;fontSize=18;" parent="1" vertex="1">
                    <mxGeometry x="170" y="160" width="610" height="140" as="geometry"/>
                </mxCell>
                <mxCell id="8" value="main" style="text;html=1;strokeColor=none;fillColor=none;align=center;verticalAlign=middle;whiteSpace=wrap;rounded=0;shadow=0;fontSize=18;" parent="1" vertex="1">
                    <mxGeometry x="170" y="300" width="60" height="30" as="geometry"/>
                </mxCell>
                <mxCell id="9" value="header" style="text;html=1;strokeColor=none;fillColor=none;align=center;verticalAlign=middle;whiteSpace=wrap;rounded=0;shadow=0;fontSize=18;" parent="1" vertex="1">
                    <mxGeometry x="171" y="20" width="60" height="30" as="geometry"/>
                </mxCell>
                <mxCell id="10" value="footer" style="text;html=1;strokeColor=none;fillColor=none;align=center;verticalAlign=middle;whiteSpace=wrap;rounded=0;shadow=0;fontSize=18;" parent="1" vertex="1">
                    <mxGeometry x="169" y="1180" width="60" height="30" as="geometry"/>
                </mxCell>
                <mxCell id="11" value="google map" style="rounded=0;whiteSpace=wrap;html=1;shadow=0;fontSize=18;" parent="1" vertex="1">
                    <mxGeometry x="169" y="1210" width="610" height="170" as="geometry"/>
                </mxCell>
                <mxCell id="12" value="&lt;br&gt;&lt;div style=&quot;text-align: justify;&quot;&gt;&lt;ol&gt;&lt;li&gt;&lt;span style=&quot;background-color: initial;&quot;&gt;- succursal&amp;nbsp;&lt;/span&gt;&lt;/li&gt;&lt;li&gt;&lt;span style=&quot;background-color: initial;&quot;&gt;- succursal&lt;br&gt;&lt;/span&gt;&lt;/li&gt;&lt;li&gt;&lt;span style=&quot;background-color: initial;&quot;&gt;- succursal&lt;br&gt;&lt;/span&gt;&lt;/li&gt;&lt;/ol&gt;&lt;/div&gt;&lt;br&gt;" style="rounded=0;whiteSpace=wrap;html=1;shadow=0;fontSize=18;align=left;" parent="1" vertex="1">
                    <mxGeometry x="169" y="1380" width="310" height="110" as="geometry"/>
                </mxCell>
                <mxCell id="13" value="" style="shape=image;verticalLabelPosition=bottom;labelBackgroundColor=default;verticalAlign=top;aspect=fixed;imageAspect=0;image=data:image/png,iVBORw0KGgoAAAANSUhEUgAAAPsAAAAsCAYAAACjSc4xAAAAAXNSR0IArs4c6QAAAARnQU1BAACxjwv8YQUAAAAJcEhZcwAADsMAAA7DAcdvqGQAAAmqSURBVHhe7ZwFqFRNG8cfuzCwC8XuAAMFW+zuLsTAQhTFQgULbEURu1vBbhG7C7u7u9vve3/jGd/zruuNPV6ddecHh50zu3vZvef858nZaP/7B7FYLH890Z1Hi8Xyl2PFbrGECFbsFkuIYMVusYQIVuwWS4hgxW6xhAhW7BZLiGDFbrGECLapJgxOnz4to0aNkiNHjsiHDx+cWZG1a9dKrly5nLM/z5cvX2TKlCmyZMkSuX//vjMbcaJFiyZ58uSRbt26Sbly5ZxZsxg3bpysWrVKdu7cKS1atJBkyZLJ+PHjnWeDl0+fPsmmTZtk48aNcuLECXn48KGa5/vlzp1bKleuLHXr1pVYsWKpeS9Ysf+Eq1evSr169eTVq1fOzL+YJvbu3bvLunXrnDNvIKDq1as7Z+Zw8eJFqVq1qmzYsEHd/GPGjJEKFSrI48ePJWnSpBIzZkznlcHD4cOHpVevXnL79m1nxj/p06eXCRMmSIECBZyZwPAkdqxdnDhxnLOf8/XrV2V5li1bJnfu3JGUKVMqIXXu3Fnixo0rBw4ckESJEqmVzBT69u0ry5cvd87+i0liP3r0qDRq1Mg5ixwNGjSQ7Nmzq/H169dl4cKFyqLs27dPYsSIoeZNomLFipIlSxbZv3+/7N27V1q1aiWnTp2S1KlTq2vSrFkzad26tWzbtk3SpUsnAwYMcN5pHnzenj17Km1gtZs3b668qgwZMihP7fLly7J69WpZv369ej2vmTdvnhQpUkSdB4KnmL1p06bKAoYFX6ZLly7KDUPogKuC+OvXr6++YL9+/SRz5szqOVM4duyYM/pG0aJFlZvLkSJFCmf2z8ONHyj879u0aaMOrCY8efJELly4oMamUaVKFdm6dauUKVNG3Uu4vVh6PjOLXrDA/7d3795KGyxeLE79+/eX4sWLq0UKwXNtsOboBnD30dG7d+/UeSAELPZnz57JyZMnpWHDhnL27Fln9ke4GFu2bHHO/sv58+fVRcMdmzlzpjNrBu/fv3dG32BB0mJPnjy5M/vnef78uTP6dfgLXUwAyw6IHusHeJZYvc+fP6vzYGDEiBFKvHizc+bMUQJ/8eKF0srNmzedV32jRo0a0rhxYzVmUZs/f74aB0LAYufDAjcb7uCCBQvUSuXL5s2bnZF/uGis1vwNkzHRrfUK1454kePRo0fOrLkkTpxYPSZJkkQ9BiMYtz179qhx27ZtJU2aNPLgwQO1gGFIqlWrpvIQbmrVquWMRGklUAIWO9ZN/9OJ3QcPHiw1a9ZUiSK3Vbx7964z8g9/gywycbwJEEvNnj1bXr586cx8g/iJeQ7fi2E6JK+yZcumLIgb8hK4xBwk+YKJhAkTqsdz587J27dvJV68eN/Pr1y5osYm4g4PsdqAdddZeNz0S5cuqbGGBJ3G1/JHhoDFHj16dBXrucEt56YhiUCiBHcFdz8sEiRIYIzQYdq0aTJs2LAfXNkZM2aoeQ4vcdPvhthv165dqrRD2Wrp0qU/iD5YiB07tkqMxo8fX9KmTau8QRasUqVKSeHChaVgwYIqjs+YMaNReRU3bkOhRcwC5cb3+mgvGrx4mAGLHYvNP99fYg0x4KoQh4e3EukVOpgwaXHSIGqSnhyMIW/evOrc/XkLFSoks2bN+l6qYnHW7zN9EeB74Hnly5dPGRuMCT0Q06dPV1WdIUOGyIoVK9R5hw4dnHeZhTvfo3s3WLw0VBZI0LnRiW2gzBgoAYsdkY4ePTrcbHx4ZMqUyRkFB3zviJQbfzfcICQ6OXQIQmnKnyUgA6wXBDwr/T4SRqbBdyE01CFUZI5Fixap0pxJ5MiRwxmJ8rYAj0Sjr4sbt+vvpTztSezly5d3zgIH98skKHdgPXytNyUQ5leuXOnMmAuZXUiVKpV69AduMDx9+lQ9mgjeYenSpaVPnz4yceJEdXB9dDilDxpssPK+8wMHDpQ6deoo78WUbD19DZRxYezYserRnRwlf+KGpPeaNWucsx+fjwwBix1oWgjrhooIZcuWdUZmQFhCXOjbnpg1a1Y1b1o/gD9wBSGserl+Tr/WNEhYdezYUeVOunbtqvoJ6Djz1ylI85PbYvrCe1goTAHDkTNnTpWJh0OHDqlH8A1raXTSCUcMEB5YoHgSO9aBul+gFp4Vzjc+sXiHhBWQ5fWtKsDBgweVeOiJx3KaCC6uruqwPwErTeMMlo2bnioOOQZdEdLnwCMNKu4QhljeFDCQWGuSvuS33Ak6FoJ79+4p74xkMXkIDRUvLz3ynsQOO3bskO3btztnkcPUJEqwQxMGFpvEDq20tL/Sz8CNhaVo166deh095u6yjkncunXLGf0In7927dqqLq1jXM5pSiETTymXe6tHjx7qOdClLVMgwUjfAN6K7k+hfIiVL1mypEqkjhw58vtzdNzppqJA8Sx2enpxSSIL3oCpViXY4abBKpC5pWbbsmVLdY3IYg8aNEjVpcmVYCn+FvBiKPPi1dAshGiCIeSimqCZPHmyWoBZCIDHEiVKyOLFi6V9+/ZqzguexU5mmg9D22xEs9S4McOHD3fOLFEBWVtiVWrRlHb0fidcXKwEFl43ovxN4LoT91Ja1JtITEaLnUoIwsaa04a+e/duOXPmjFrEvGx+ceNZ7MA/d+jQocpqhCd4YivKIuyuskQtxLZkqY8fP65ceW4sGmuwEv5Kcib1l9PDER6+9xrfido1MS+NRLriYDK6NIjbri06izDJOy/xuT8CFjvJkzdv3qh9xnPnzlWtsmwWcf/Igy+4VWxz1dsqLd7RJcKwMu+IQCe1fgau77Vr19TYhI0+vvfIx48fVfgB5CKaNGmi8hLMv379WsXvQGKP8IWknrt700SXnm463Y1Jb3xUE/B+diwEtcyINNWwUtFa26lTJ9XpFAyQT3B3LlFjN+kHKzSUZfg1Ey4j+7krVark12qHBRn7qVOnqlZTRPGzXYq/E4wJm0Ju3LjhzEQcLCSegXuPBg1gJPFMgvuL+4yFmCR3VIdVnn68gkwhiRBiI1xFLgwrFTcb1oF2TTKL7NrxrR+aTrCIHSZNmvRLfqKJ2J4QC5fSBNiNR++7lz37eDNk5fntBdPAshcrVkyV2/SmmKjE/izVT6B7S7tYwEUxecFi6yPtoZSs3BsnIgIiz58/v4rlaaU1DUQRyBZcrDulOFN/sgpjSXcgSbnfgRW7xRIi/JJsvMViMR8rdoslRLBit1hCBCt2iyVEsGK3WEIEK3aLJUSwYrdYQgQrdoslRLBit1hCBCt2iyVEsGK3WEIEK3aLJUSwYrdYQgKR/wOGbkz9SECslwAAAABJRU5ErkJggg==;" parent="1" vertex="1">
                    <mxGeometry x="169" y="1490" width="610" height="106.93" as="geometry"/>
                </mxCell>
                <mxCell id="16" value="Copyright 2023 ho&amp;amp;vanclothing.com Tous droits réservés" style="rounded=0;whiteSpace=wrap;html=1;shadow=0;fontSize=18;" parent="1" vertex="1">
                    <mxGeometry x="170" y="1596.9300000000003" width="610" height="60" as="geometry"/>
                </mxCell>
                <mxCell id="17" value="Catalogue" style="rounded=0;whiteSpace=wrap;html=1;" parent="1" vertex="1">
                    <mxGeometry x="320" y="120" width="160" height="40" as="geometry"/>
                </mxCell>
                <mxCell id="18" value="Detail" style="rounded=0;whiteSpace=wrap;html=1;" parent="1" vertex="1">
                    <mxGeometry x="480" y="120" width="150" height="40" as="geometry"/>
                </mxCell>
                <mxCell id="19" value="Formulaire" style="rounded=0;whiteSpace=wrap;html=1;" parent="1" vertex="1">
                    <mxGeometry x="630" y="120" width="150" height="40" as="geometry"/>
                </mxCell>
                <mxCell id="20" value="" style="rounded=0;whiteSpace=wrap;html=1;fontSize=36;" parent="1" vertex="1">
                    <mxGeometry x="630" y="65" width="140" height="30" as="geometry"/>
                </mxCell>
                <mxCell id="21" value="" style="shape=image;verticalLabelPosition=bottom;labelBackgroundColor=default;verticalAlign=top;aspect=fixed;imageAspect=0;image=data:image/png,iVBORw0KGgoAAAANSUhEUgAAABoAAAAZCAYAAAAv3j5gAAAAAXNSR0IArs4c6QAAAARnQU1BAACxjwv8YQUAAAAJcEhZcwAADsMAAA7DAcdvqGQAAAEzSURBVEhLY/wPBAx0AExQmuZg1CKyAd0sIpjqbt97zLBtz3GGJ89fMXz//pPBwlibwRyIVZVkoSqIA3gt2rbnGMP+I+fABgsL8oHF3r7/xHDy7FUGRxsjBi8XK7AYUQBkETbw+OnL/yX1k8E0OgCJZZf3YJXDBXDGESi4QD6RkRKDiiAASMzB2gishliA06LvP37AgwsbAMmB1BALcFr05NlrKAs3uH3vCZRFGOC0SE9bBRzxuABIDhS0xAKcFoGSMSh1PXn2CiqCACCxA0fPMTgC44lYQDB5gyLc0cYYJXnvP3IWzI4J9QA7iBhAMMOCXA+y7NK1O2C+npYKOA+BxNduOUC0ZRTVR4tX7wAHLzGWUWQRCKzZvJ+Bi5OdYClBsUXEApypjtpg1CKywXCziIEBACOE41NzUGwbAAAAAElFTkSuQmCC;" parent="1" vertex="1">
                    <mxGeometry x="630" y="67.5" width="26" height="25" as="geometry"/>
                </mxCell>
                <mxCell id="22" value="" style="shape=image;verticalLabelPosition=bottom;labelBackgroundColor=default;verticalAlign=top;aspect=fixed;imageAspect=0;image=data:image/png,iVBORw0KGgoAAAANSUhEUgAAAToAAAEXCAYAAAA9cIi0AAAAAXNSR0IArs4c6QAAAARnQU1BAACxjwv8YQUAAAAJcEhZcwAADsMAAA7DAcdvqGQAAEkjSURBVHhe7d0LvGZVWcfxheSIDpl4adRAa6zE25hJmmiiCXiDAAmjEBIcCUcELyAoCnIPmBQQEGXEHNACVEQjSzDFa9J4G1MxAjUwGqXGTIqG8G1/95x1XGfPfm/nnIH3bJ7f57Nm3vO++7L2Ws/6r2dd9xa9ilSxatWqtO+++/oYBEGw4PnLv/zLtHz58vrzvep/gyAIOkwIXRAEnSeELgiCzhNCNwK6Mae6MufMfF4r6B4LwT4Wov1O1GDEnXfeme644476/y222CLd6173SosWLar/L3GMIOqO+7mf+7l073vfu/7chmP/7//+r/7sHMcKbfz0pz+tr5PP2bBhQ1q3bl26/fbb0wMf+MD0oAc9qD53yy23rI/rd8+SfJ2f/OQn6d///d/rz/e///3TNttsk+573/vW8feMzWv5W3z+93//t06TNnIaOF+cpNcwcvrl++V0zn+7p+edMo06fuXvbeRnzDTzJN9zHMpriJPz+6VDPzzD4sWLp/4aH/eT/qPaGprP6njnNc/xd7Z56fejH/2otg/HszXxvs997lP/PQh5lcsM7ne/+9X/9+O2226bPtb/7uH//F2J5xa3HMRx/fr1ddyUBfYrfs0yOgmUgxETI3QSee3atWnlypXpM5/5TP3dU57ylHTkkUemJz/5yfXfkKDiesEFF9QChKc//enpLW95S3rUox5V/13i8Rx79tlnp//+7/+u7/Pa1742HXLIIbUwNFFYb7nllvSe97wnXX755emmm26qDdF5jn/kIx+Zdt9997TffvvV9xtkhAono/i7v/u79N73vjd9+ctfTv/1X/9V/+Z6D3nIQ9Lv/M7vpD/8wz9Mv/3bv12LX9PYGL40+OQnPzn1zUzcf8mSJWm77bZLj3vc49Lee+9dx3Grrbba5FqZSy+9NB199NF12nimAw44IB177LH1b571E5/4RDr00EPr+Evv3/zN30zvf//768LahoLzwQ9+sM4D13TO7//+76fjjjuuLhD/+Z//md7xjnekd77znVNnDMe999prr3T44YenX/7lX04f//jH02mnnZa+853vTB0xGg996EPr9Jce48JePvrRj6Zjjjmmjo/nf/azn53OPffcvmnx4x//OF144YW1veX0Vdhe/epX16IwVdxq2Nq3v/3tOj/c53vf+14tWI5RsTzxiU+sbeOFL3xh/Rz9xMQx//AP/1DHEa71mMc8pvV4z/S7v/u76Qc/+EF9H7bzV3/1V7VoNe1FXG699dZ01VVX1fb7rW99q85LeC7nPPOZz0x/9Ed/VJdBz9fP5u4OJnbUVSGTkD/84Q/rQCRKLwEyU2b9x3/8x/RxV1xxRW3MWUSaKIgyzLEy2PmlwWXUjAROpv3Zn/1ZuvHGG+taTOY53ucbbrghnXXWWekP/uAP6sJd1twZx4vn9ddfXwvIwQcfnK655poZIud64uIaBx54YDrllFNqQ8/GmmFs0kT82wJR/upXv1ob95/+6Z+mnXfeOZ166ql1JdD2jPCc0sL5hFR6ZAgnwXSuY1yHgf/jP/7j1BGb4jm++MUvTl/TNYgTz8J1BHng91GDeEkvzw/pzB7ajh0UXKNfOgxD/B/96EdPp4W0lhb/9E//NHXEptx88811heZ4aeEaKiFCW8ZDmv/FX/xFXcmceeaZtV2xr3wMuydeKuWXvvSl6dprr221NbCPsjw4t5/guL60zfGTpmwui6LzBPf63Oc+V9v5ihUr6vwl4vl3+SLfP/CBD9T2zeZcc7ZpvbmZPH9zTCS6xH3Xu95VG0suGOPiPJnGe8oZyjh5XYxdUINx892PCBKnv/7rv566ws9gODwPtfrq1atrA1YD8m4e/vCH14b/4Ac/uC4EvlcY3/3ud9ciywgHwSB5fpo2OfzCL/zCdPOD0b/tbW+rRS/XvuPy8z//8+l5z3ve1F+pbnJ/4QtfmPprU/7t3/4tfelLX5r6K9UeJS+wH+IpLcpnaAtbb711nT7g4XjOtuNykC6lF+Mz4e/nfY2CfOK1ZIjDmjVrpv7aFJVVWSn8+q//enr84x8/9ddGiMj73ve+dPrpp6d//ud/rr+Tfw94wANq+/jFX/zF+llyvKU9z1aFNlv7Hgf2+/Wvf70W2ZyvKi9dLb/yK7+SHvvYx9YeJvuVl9KE7Z533nkzKs1JYsELXa5BrrvuunTZZZcNFYp+6Ic5+eST6+sJ3PA//uM/rpvRalY1muaT5lRurv7Lv/xL3UxRm5bIbMdecskl9d8KHIM/6aST0t///d/XRvTpT3+6bs4wGLj/hz/84dqo8zO1oeDxKDUvhY997GO1mGqyKhyZP//zP0/f+MY3ZlUwPPuuu+46LTJZ6JreJoj497///WkvR+HUpH/CE55Q/92GeHr2/Az9gua1go+nPe1p9TO1HSdcffXVdf6VacCrfP3rXz+dX7NB4d5pp53qAg0eEI9NHuXvMjwpQvfd7363/tt9t99++7qSzDjvs5/9bG0b7AcEQ1Pfd1/5yldq741o7LDDDrUA4pvf/Gad784ZZB/j4lo55L/ZsxaCZjXk6VOf+tS6KejZ2bBn4BRo+kKlKg/Y9SSy4IWu5KKLLqoLd7O5OwpqVs0OECZeyYknnlgXNJmv0P/ar/1aXXD0nTjG95oz+hZLNFkJEPHCtttuW/cJvuxlL6s9DwXEd5oEDDwbMy9R/AlLP9z3l37pl2oxER+163Oe85y638j/RApESb+eZuq4iM+TnvSk9LCHPayOq2swep5bs3CrzXkauVlFuKWPwtsPz8BT/tVf/dWBwbXy4ArvTp547rbgejzynHa88Te96U3193PBc/zGb/zGdIF2fWmR+7hK2IL8y2nxiEc8ou4GKPsH/+d//qcWZmkGdqW/9w1veEMt5u6n5fB7v/d7dX91tjWwKd5ivybsfKGFQdAyWiB/8id/UvcjZ7vnde6///7pJS95Sf2dQIQ9/yTSiaarmtP/alsDDwyuaYTDyP1ncC3GljM1F27/q+Ff8IIX1AYsKHyl10RgCGY2ZDBWHcDOz9cTNMUIiuaAe/nO4Ie+jn7k4/K14H+1ro7yLDC+m006ZDRfd9lll+nz1dif//znN/HqxLUsFNKDJzKIHP/ZkM/NQXpIf00nac7D9N1uu+1Wd+LPpdkK9+BFS9uMZ9Z89VuJfC8Luoqo6dmqULU+ciVIDHnP0q28ns/sxm8qR6jAVV5GPjcn8lifakb50qyGeOVA7H7rt36rrgg0z3nQuaKdNDrRdFX75ybLlVdeWbvPas5xYHC55lVwGKMBDuKp8GQYPZddoRc0l4lYhgHrwHceGIlrM4ImjEVtSewUCIbNeBTUfgwSrmyAGWJV/j0O+tAIXW6+6rfUZClRIIippjg8K+9KBTAKs41bEx41oSPGrsnj1ewd5FWOg8rtGc94xnS+8GI1MUvR95lHw27AE9VsJXYljvnXf/3Xqb9SLRLsox877rjjDK/0a1/72gwR2hzw6Nllhj0bmeXRly0E6aHSN9CmLCh3r3zlK6d+nSwWvNBBx7mRUobN4DTjDAYQrGbh74dmkqZfLtj6+owm6dTXZ8I48whe83rl32pdopAhNmrkNoHynSk0BlL0eegPNEWjTRQzzskBntc9FT7XyE03omNajv9ng4K6bNmy2tOAwsVjKpvVhEXfUfYwpCHRLptqbYiz+Moj/Vn+FzTd8+dRR0vFwQh5Fg/x1v83KA3HheiriHLh97zEvUwLz0PkcstAuvFycrcE2InfS6Eioprl/dB9wK6zjbnP5m668t54sDlenvfiiy9Or3rVq2pHwqCffryyi2iUvLo76YTQKcz6v3h2miqaDx/60IdmCM4wnGe+lFpYYZFxMtj8rz333LPuo9Dpr0ZVs5VeXglxzc0SuNZ8uvPuqw+Q6AhGxcxzOv744+sRYDWue5qf96xnPWvWQgdeMq8OxEmTrWySqwzKEUieybBmK+RLTlfhRS96UT3I4//83d/8zd8MLdDS+tJLL629CWlODDyzgZlSYJrIW8/TL7TBk5emcF+ebDm6SmizZwu22Gy2uq94lgJBRAfFVR6UeSh/+8VxvhAnlb78IHrSlaj/7d/+bXr5y19ez9szJUbFrKtlUkdaSzohdDKC96IDV78XTNcgeIRhlNrGNdTARlF5iGrv7JloBn/qU5+qO4wVSF4XL69fXwmX3vUElJ/nihpd88CUBwVPs9lEbyOSBEShUdjPOOOM1kmg48CTcP3cz8V7ys1XaapDnvDDfTVbTVQdhoLqOXgGgn6r/JlXJ3iWYflmUEA+51FvzX6DRdkG2nBNImUUvRnkKSEv+2szWehyWmjOab7CNY08826hYmtrtrbZwSi24fo5LYalyXyh+W8wxyCa5yC47Fp54rmawmSiMFs0W0Ca9qv8J4FOCB0YgMmXRiE1P3kbmoTjTGJkcM5XeDRZdWibGmDELXt5CqhVApq13Pnm1JK7G+LGI1LYRylEgyBeCqzBEhAfU214JDwLAmU6BTRby+kQg5A/RMmUm34hexL9EJdzzjmnbuYSTvnD69Y/mLsf2pCHpkno5G8G3qtKI0+rKMnilZvy7IsHx+vUFCXSufnsGM3+uXjTk4Bms/5olb9Jy/oTzRbQpCV6ntvgCAfAhGHpxtudRDojdAqFjJEhpoTICHOBuNdlU2EUeHK8Q0vNTFmR2QqCmi33Ayrg3PfVVXO22cRSmHJw7HxmvgKtwBEVXqygUHlm3obCpi/FZGUiLA5zgWDm5qvn1JmuUCvoms35+gqAEbhRUFBUSgpQv5Cb3W1ix3PQTFfIcn+XqQ88DM2uuYj7IIhzbr5qgupfFHgzBkSkhXvzbOVJG35nm5lsI/3wrOXvubVwV8HeDJKZamUlh/9NidIsz1Ol2JnfVDxZ7CeNzghdhkCZj8SzYCT6gvQjDCvwDFcTVeCtOJ5noCnGU7DWj3g897nPnW7Sar5w2xV+yHSFs+yTc62y07qJ3zTV9PcIpigMEmbGpfPdnKoceChq1aVLl9ZxJqyMTnNsXJFvYjDFhFnp6fmMJmu+8mxNK/Gd9NAnVU6MHYQ46hpQgPoFTcVSEEqkl0qIwMCxBiAI0TDEV6VAGJvBpFiDKf0GB3jLjlP4kZuvmq15LqWKUEVE7NqQVvl86A4YNEOg2emfvakSz1Ta9yDhRPN355ewn7IsKEfuKd2I3Fvf+ta6MuJUqODgOINh/dZk3910TugUSB2meV6SznL9a+UAQRNGIpOsO7WQnyfYbJIyTlMMrF1VEDM8m9xB7zrubyQt9+XoqNWXxRCaBgV9XCeccEI9mHLQQQfVBdhgRxvOZ3DiosAQVIFoMLp99tmnFiYwZh36cxU69yJgmpOeT7+kVRJ5KoXvNFuJRFmA54rr5lCiYlDI3FuBVLGYtMqbHKWpKP2kU1lRlEF3RD/BltYqPhUKCJ1+vTxiLH8MyPDm2prPnoVtlH2IKrZB3R88xnKUVt9Zs3ug+TfxbKZbhmjl64mvkCsxSFOtFYN5yoJpJeUgi+uybWmk5WAtbD6X4BsoGya0dwedEzqJrta1w0ieW6dQDmo+yjwTjV/xilfU3pt1hbyhNghJuXaRkJSDEgqbJrTaDwxLX1aeSJqNAgxCAdEE1JFtwbiO8EF9TIPw3NnbxLDnHhX9ZdaMgnDrpzO7P4u3ZyU0/QrXfCG9VFqarQoz9BsRurJPshmaKKjSuBl836+5nOE1msoEeZWXQ+WKVH9mWRGWuC6RJIb5HuyCaDu/GV+CZG5ankBOpHVVND3O3G2RUfG25bv0c69SOOVtLifQPeF8gxDKgl1sVCzNClNea13wXPO9ncs+HLu5bWFcOid0mQMPPLBuQpQGMIiyT4XRmS+khioNhmj5jnBlCEueuQ6GypvUfM5NjDzdRRM6X8+11NYKSu7XcC3zv8rrjYPCXno1vJ/5qF0VhLwND3ghvEX4jren6ToO0kEaDArNwir9FDr3h0LKe1fQPWfbNYQSBVDIotIMw9B8NfeRF+Q6+iuJkXMJEI8vD1i0QeSIc85jXqEWhIqVAOX4qTxNGzJpPYu6icP6CLPXnhGfsoJja2yu7DuWPjw1A235OdkKT9zf7pm/U1FLW2i+6lLRTVFOI3E9cff8+T7SRBrw7EdJy7uSLd9irkSFB2nusnBXImH0uZhlrSkATTKd0nmiZkZzQcjTADQpeRT6RzIKPaFhQM15PvqcSiFybxlrnpDRPAWMC87wZKimJ4FjPJdddlntUfieiBrl07GuAGQYomvqv2GwjIWoaeY6z3Py3iziJqju6Xj9Q0b9ymkJ4pAnaTrGtU1xyX0jJfrNNL/LgmHOUxaojOZy3nVFGhjYyB5bG55TvG3bk+cQ5n5H8RBnhbcfKg7N3Tw1hfekoKv5jdT1C55dPio4PhtFF+98b5WC9JeebefnwH7mq1lNCHiy7I9deAbxkTfEXrPYyH0/PDs7JdbsnK3x6lV2rqUPVEVqUwj9rD4TIedYW6oPuvTAoI9SuSE8jvU/USM8bE4FwXZNQWJz8lJ8NYOPOOKIGZOr2YOQuyYcy4bF0fdsVXrbxIFAKw+5ReM6bLM5f/DugkBP76JTJUxN1XTrVcJxt4XKWHpVZvWe85znqFrqsOOOO/aqDN/k2FNPPbVX1eL1MVWG9Y466qheZTQzjnG9qlD2KsPoVUY+fU3h2GOP7VUGNeP4KrN6Z5xxRq9qevSqDJ2+dmVgvaqG7lVNjl5V6KavURX+XuW2904//fRelfkzriVUhtE76aSTepUQTJ8jLF68uFc1f+r/Xd937uceK1eu7FVGOeM6lcD1nvvc506fX9W2vaqmn3FMDpVh1vHPxy5ZsqRXGeQmx5177rnTx3iOV77ylZsc0wyVUPde97rXTcdZ8LmqZHqVoNfp3XaeUBXq3mte85rp80YNe++9d6+qgOtrfOYzn+lVFcGM+48axK8Zp7mEqpLqVZ7kjHvIw91226339a9/vfWcMrCXSiB6z3zmM3tVJTTjOpWI1TbX/K4SkN6XvvSlXlWJtV7zPe95T69yVOr8zOdVotqrKrteJWgzvhfY5dFHH13bffNalTj2PvGJT9TlT/ykuVCJfG1/7N51y3JSVVy9FStW1GnTvN7dFWhaZsE2Xau4z/i/SZX4tRutr0HNpTYahJrWYEAlmtNeJE+GN6Z2VKOpzXyn851X6NpqWfdqwpvSUavDlsfEgxEHnglPwP/+9r3fTbw0/y03GTJt1+6Hjm5z/jwL1OZGA5vNt9nAi7DusvSafdYpnTvnNyc8jMp4++b3XQkPSgui9JR52rpKmq2PNuQpD9pIsY0HeEJ5QIGN5RZIbgqzI5N39YfJ2zabMBpaVUT1BG9eNjvljenf0xphA+yNXerLZbtV5VMf14T3y0O3rRgPTR6Li2vw5rQucr8he3WsLc3KUdhJY6LeGUFMNL3yKI8EfvGLX7zJDHP9Q0bI8sL5PfbYo57n1uy7gMczHUNnv2aCvzUvGFib+DEOhUrTwSCBDNVUcayCLWM1l0wzYdjDIJSaivbq0ozSrGQwDEyzzDNaV6jZWopIhuHLmzxPi5gRxWaaZCxuL5dEMXz5mgsSNHNyX43nMk/OHLRhaG7ZE03TCETaom5pPwgF1+idJvioeFYF0jIkFYvRc80u9x5H/GELdteYT3Q9aEqrTGCQwgCYFSvjxE8lqh8uN4XzAA9b0NenT06lylaGIc10keiC0W2SbRea3GyHcBJZTbph8XQ9I8Lmoup2EFfNdGWEGCpvKjk2ZpDEHMZJYiLfGbG5kJlTjzhN23dtEEbGQmycoybn2RCpUc5HNibGwUj0o+mLITz69dSUwwwuk48b9d79aD5/8+822u49X/FZqDSfO6fHbFAx6etSEWZPn7hl73xc2JtKge36zM6IPdt1/XHyzHO5Bo+a/SoXRI5wlhXopHGPErogCO6ZlEK3YPvogiAIRiWELgiCzhNCFwRB5wmhC4Kg84TQBUHQeULogiDoPCF0QRB0nhC6IAg6z4ITOrO0ZzsDvTxv1Gs4biHN/B/luWabfnPFfUcJ/Rj0G4b9jvKYcVcHjEN5/LjnZpzX79xR4j6b+457zmyf7a5mYldGWDxsexlLY0ryGlFrC607bVuUXGLpikXItl2yvMaSGku5rFPNm2M2cY41gxZD2+fLusDmUpy8wNlxltdYe+r/jHvZhsfi/RLxtXzG4mpLaIbFvw3rZ22TY0lZiaU9lqg1F/c3cZz1xIN2toW4Sau2dbWWsckf8bDMSDp5JhtP2s+sDcuHrCNubpvVxGJ5Wx7JZ9sXWWPLDqzTtGyurXAxY89kmZJlSRaaN9PW0iXrjdmDtPM7O3Jd/7fhup7Plj/Wd1q0X66bZQe2rrIOtEQcPYe8kC6zWQfqGq4rDcq95eRfXgurDPi7DeeLe/mKyn5IM9tLsc1SRH1my9b2Wg4p79i5DQasc40lYHPEAvC2Rdy5MDMee8pZoOxz0/j9be2gTQjtSsu4ZRjjto5Q4fVaQwuxm4KgUNm7y1bSCoC0ae5npkDZWMBGkK5lJwqZD/e2CP+d73xnvVFBiXsxekJEQC3oV3ia8R8EAbZQnXiXRunajJDx2yTg+c9/fn3ttoJgS3gLycvzS8SHeFmk/trXvnbq240QSM9uY0j7pRENBk8UbXhgob8NHcvdPWCDSu/eEP9B2JzSxgXEyu69Niogqna8tZlCm2ioUA477LD62nYW8Q4NYuA5PKM4v+9976uv51pZ6AinfRilVfkC84xKj8h5jSJb2G+//eo4ZFzHvmyrV6+e+mYjOf3kBUGwI448GVfwXNeGCGw3I46ezU4hnlV8pH0bKiLp0kaZ98qQrSnLDVSVAyLp/jYJUFGpZD0DW7eYXxnqV7Hd3SyIJWBqSTtW2LZbJitIgkKrcBFB7y4lQnk3jRIZYocOO5d85CMfqY3aDgtqLUbvlYWnnHJKvXFgs7Azbt6YjSbLN12VqMkVKsfYnaTpuYmzzUztJMKLsXsEsXRt8Xdf8WfITW9gGGpVhqfQ8nakSU4bcbIDzMqVK2sxVAs34+9vu7mIO0NWIJshp7d4l3iuK664on5BCrFzT9tM8ZDtvuGdC14iZKPNEgXfTh/SxGaoCk2+R1tQmJ1DiHjN0pFQ5k0em0hTvzuOwDo3I728sY0t2NmD10IgVFDsjPjKi7wZaRNekbRij01b42kRTnlBEO0WIp+lm/Ps/HHeeefVr89U4Zae2SiwDenl3s6VN9LGPaW1PJbe0r7NTgmxuEsXaVemcTO/yzTj/bKR008/va7MxYPny7mQfrbSZwPERHlqu/ckMX676S5GzeXN6zwLEAoFhngpaGp7W3nbdqn0IBgVA2YQdtl1DZ6CJhfvztvBFEYGrqCOuxX4KMh8Rm8HZHvdgUAq5AqcmpLg8rrUioxtXGzj49l4udKGp2kbJsZ56aWX1u8vsE9Yv2uryY855pipv2aiQPF+M67Pi+SpElReipf6aK56LoVRmitU0pqn1NYklE88AbvltuF3zTLp59oCQVahKKz2F2zCOyUyKjTbGmUP3DWy5014bL1u3z8etcpQYT7//PPruBMkW+q792zwzNJaZeq++foqNUJItHl3+fdxIC68E+JMhIgLESV2yoD8X7FiRV1e2iBitjPTAmq7N/soPTNljDPBlqQ/r1Dl4Dii94EPfKD+nY15pn55OSlMtNDJEIYrc+2LX8KoNAvVdvbzUtPkAqBAes+kvg2ZYJNBBpybcAogg7BpJteeB2TDzfmGcYm/vsAy/uJHAHhjXg/HO7MnXL8+w0F4Zk3gUpBsZc0TVvg1vwl9m9CJn3Ropm0/iKgCq/CqGBRq8c6egPgrgJ7H1t1EsU3oCCgxGXZf+S/exFrFZWtvngvPIudlhh0QFvmdN6gEUfDiI54ogbHZZLk5ZH7htRcj6eMjiuxlNhAj9yAIGa0IAqxylS7SzjHjQrjZrea8dBHkuz0Zdc8Qck3vfm8gk0fSRZq3CV0T+chrc1/vC7GxZ3YklD3pr3tG3x2b0HzmGU4qE9t0HQZj4clJfIVKIcwoDL7Tx8DrsINrWTBkOg9RgcE4G0LOB+Ii7gQcmk+8vCwYc0VnOXFgpAqWwj4fEAtNefFn7HYcLuPMq1CY9EspKIR8PuBxE0zNMIMJzW4CXp4Cp2knX8t+MGnLE4S+w+YOuJqYzpEXmrgqnlGEYFTyQJU80ewVVHSzIQtcjh8PTEvBgIe0JtJaLPOBssNrV760OLLIgZDKf6Lp+VQwzTyZNBas0ElsGawwq9VyBjMCGSTxfSaIbd6M73LNqn9nvsRgFIiDeAtQQDX95pNcuyq8uWDMFZ6JAkUcCA9hK/Fc0vTII4+sm4h2T54PXJPnyjvmFRHcEmKuqeU5dZCX+a1/L/eLtb2G0Dm8WmLkOMfPN9JLYKPyeS4VWpmXPnsmcVcetGzys84V1yNi8rw56gtNf6+Z1PVjgKZfk3lSWLBCJ5MZPOMxDYEhgRHpiyFcPusXaXPlIbNAFGXo5kZ8BHHndeYOZCNmRLs04rmgMGXx1sTs9/zDaBZI1+M5S+s8raF5jJpeARByRdJG87xMTqMSgqo57n99dU2h00Qn6DwcTdFsC+DtZQ+qrRkNz5FHLdkBb2a+cG/5zGN3j7KLYT4g6rxolYBumEEV9jj2pUzZyp6npmmqC0QaZ3h4mtGatLqNSo9vElmwQidT9QExzPzyjkyZ2dlraqP8bZCBzCcM3/w7UxL0oymc+nHm650GREDnt9FN99I/16/vhOGrFHQsN8OHP/zhuoO+xPHSiRApWG1i5Xt5IfRLe5WT+LXd17s62kbR9XsRCqPh0i97wOIkHRVCBZMAl/FyXC7g/dLB8dkLzM84H7BNfYcGnnicnoEH1pZuc4GAS/dc8beR00kas48y6LppjmYbpPJSHiKq0uS5mX6ieUy0FxoTL3SMTnNJ80TQASqxTZ/QD6eGNAeqbR5RNvA2GFvT4AYdP1t4iwzd2/+NXBkZ81nnMSEyIOLlMrOtEb0o6Oijj66vbe6Z6zNKNbERUS+XGST2pp+YotAMpmJI5yY53YTZpJdzCIA0MeWiGUwXams+moOmQDvXNI7cJ8Rb0tGvgJuT2EzHtnwexmzt4IYb/rmeciEvvOFefrz5zW+uXyzD6/H+39wvO5/kZiN76ifSflO5nnrqqZuk+dvf/vZNKheVghF9bx/Tz62Cueiii+o3g5mjuHr16nra1OYoM5uDiRc6Bi1RvWhXMHHzhBNOqKdmyGBD7uVb5DPjZsBsC+4weBQKJiMRjAYTECPGvAijhP2aVKPg2kaNTYY1VcW0G56u5qoBj7bJ1CUMmqfRDLxM0woGIb1mk87iZoCo7b6aqJpNTTyHwSMDDbxBnihUfPpoeZDiPEjUR2EuNvCDH/ywFnBTPuQH74lHp7mvm0SnvvSebzsbRcg1z9maAQSTucvQ7w10ugo4EcSaIKqQVYxGeTkaRNMUrc1RbuabiRc6iahZwrAFNbppDFZxSGijTgpBySgJzzhKA1HjMYb5hmEzFvP2BHO1jj/++HrEUi1K+Mw7m62xmD/Ig3Nt89tM8FQT62fiNZosmpt5TTw/T9jgQTNY6VGuAMjpJZ7NtBsXlZJpKSqtZjjwwANb57HJG0Koz9WABFsQB81r9pE9vmYeiu+49jDbZ9MfKu3khbl5Xg3pfadaHSYz6+fS7J5L2rUhr/Mz9uuPdc/ddtutdhaaeW1qTe6vbsJ+Nbe9DvONb3xjLXAGHzggujd44FpWk87EC50a3HwtTSlBoebRWZakkOvjKjNXhvo7G9Og/payP6OfgcwVfSdWDei0FbynVpPSqKQaVrPGlAY15WxwbcvYTBoWNIWlj3RhgCaTqhz6wQPKk3LLwOMquwOyYEhX//cTz1EgRgSr7b5GVxWuNngfRMOoukmrnisLnUnCbV6J+Lqf//uNSHoev2WxyLYzLtLLqG/Oa/2j7JTAmG5j5UWe6jKfsB127vkH2bGKoC3NDSAN8oSlh2vrC1dpeyZdJFok5trp45uvfs3NxcQLHaFQU2Y3W61uZE0zoJxGkGGsPIZcszOwtkLpOB3EYBxtfTuZtgKSC0dmUOEQF88hGBHUNOPRmdypNtbHZL7XbHBf8c9BE85EUn1C0ocnUdb4cyGnkwqiOfKZ0Z/KS9VM16yerWi0Ic/zZGCCYe6clS9o675AHqTy/P060f2WX4Yuf9rsahQ8a85rcSTYhMQgibjrrtD/OB95UeKabFzFWY44zxb5a7DPWmYDGKWIub5KkLfvuZQv+eD/SWbihW42mBSaM1zN36+2MZoEGccwMwzWLHc4NwtiCcPKI1XulQtUE9fKAdnINbdzk5tolBOe54rClqcciKMBkflArW90WEEgGoQ+P1dGAdE8108lfeezUEtnk4eNrGq+EnFpx6uV5563CaGRt+KZ87uJvNTZ7nweZWkLc8Gzuy9Pjwebu2Dm4g03MYFamrumym0+hE48r7766npp4DnnnNM6Cm46FPGGidz9Kr5JoZNCpzAycJluugLjahY4BqIjmygYVSph6HkOmEzXvGwiY53vWAWvrY/DPctQIm65YDJSfYRN0ZgtrsObyF4tsZ6Pa+ucNndKXDUfDQqUz8VzVLFYqkVc25qScyVPIeHRWRamkPHmcsXUhADydDy/PrKyuwLSXhPfiD6PkFjMN/JakFbuN1/NPNdRoRAicd9rr71m7Y2WsEvX4amxcaFEWsrf7AXLZ3kyyXRS6BjVPvvsUxdMhe5tb3vbjF08NCFsU0Ss9AEa9i+R0Tq3iSVPa/Xq1XVhyOdz0xUay6HU1Bbt9yvU+Rz/588Z9yFGPKOyj2g+kAZZ3IjBXK/tWozZcikVieaSwQ5TDKDQWSuqH0ph5lHqYphvjLzyunjZKiCd4uLUz6PmhRoQEH/xM3qo8gLBlq8GtXynsiIW843KMHuJhFb6zAV5qaIxlcXILtExKGfEOlducyEPQKggrIrI9p/hOJhEbFMBZcxxPLxJZuJ3L5ktOoB5HGo8fUZm1OvrYxSaKQSQ0JgnlNe8ZhQKRm8U0GJ//RQ6X3l5BE2fmv4nBscbNMAwGxiUoGZkPPOFeOkH9Bw+6zfTvGtrkunjsqtFG8RSn6g0cB3nK0z2hTMwRNR4cETN7zwA6WpaiwGSfpOgCa8R4n5rjDXpjQTqa2wi/U0jkbfSzQituWni2oZ4yR+imBe/+6xwatar9Hj3mpc62TfHPDfeUfa03FNel+txhyEfVa7ix3MllNJQ2rueQY+DDz64Fh3HtkHU5ZlpL9KkiUEe15e/yoWBB/M9bWVmsIzgsSF25bPypPuC/Rt4abOtSaKTHh14HzJOIVVwjM4ZDjf/TrOHaJkoyUhkbBOGaesZ0wQ0Z9RovDj7b5myIcNN1DXHiIcxGzSrBEJEOHOf33xgp4vcOW+eXduACngymoBtwRY9vKAS6WqqgVny+mhUAq4v6CsyyOI300f6Gb+C6lgFqBms1zTdZlDndm6+wgCVz/0KOHjdJ554Ynrd615Xe3jyz4oA8xnFwzV4RwS/zRbmihFw+czbyoMo48ITZMPSSPrwqNmw6UTssLlxRRPixoad35bX5sOVfdE8ZN6tMmLgQeXO/gmlSersyewBjgIBHJT+k8DE7jCsqWkkUk2k1s6GPS5qfdfhxbkmQyZM5uIxvmH9SPqd1GBm4LsOj5CnkkMuZM1aUo2rWed83mHbFkyazq6dm02uN0pBM63C8zhPIcpLgEoUDJ6K/9X0vK6yIOiYH9aB7LkIunNLPKvn4w0SaelKVKVrfg6eahN54XkHTXcBMZLn4t1G9mZcRyUmbYelm2fhgZjHxotTqMXRuQTb/21xhvtJS/GS3uW0G012tuG5iAObanprjnFffWnuIZ1GtWfXlb5lc9ezeF73k/fu109o2Mgowsoj1lXT7OtkP55P3AWVsYpDHstr6T+p3tyC2Ep9vlEDyTQGwVsbN3MkU56mweAn3VW/K5AWCqC0JaLSZT76iDYnOc7yMsd5lMrlno50k8/SjihKs37iOiksiK3U5xuZo+bjwc1GpGSq2pjnEiK3EWkiXaWptJl0kYM4EzfekHiHyI1GTjdpJs8nXeSa3GOELggyvJPgnkUIXRAEnSeELgiCzhNCFwRB5wmhC4Kg84TQBUHQeULogiDoPAtC6PKcHf+PM3/HqgpTCUYJmVGvX54zCuPGvRm/Zmij/L15v3HunRn3nOY9M6PEt0nbtXJ+9rsPymv2O6ZJeVxbXDKDfkMZrzIe+bxB8el3nO/K67aRf2s7xnf52sNC233K75rHo3n8pDLxKyMYt73H7I+V992yhMaLUKxBtWQlJ3qJ5T5XXHFFvXxnEJbn2ADAQnSY/e0lInlXjn6YNGyTADuuwqoLawnt6lBiEq1lVJY0uYdlM/2wrjS/Y2CQAVl2Yy1p27smLKq366u4WDxuaZO1ihZfjzvRWdpYKmZt4zAsffKmeEubLAuTDpbMeW7bKDXj6hmtORVfk3ftENxcUC+vreuU99Z2SkfLlDyPtDRxtYnlStZkWqrHRobt6CG/LfK3Ew1bstNJcxKxVRTWItutw3N4d0K5DCwjvSwVy7bqGS0vk1fe1ZDXHpc4R35ZpmWjAWuFXZtNs3vrW+3QYjdtv/fLQ+8LYfPSyPptk3uVHd/5bRjywNruZj65hvy0gYO8sgaZDbMneea8SaVcGSFBay644IJelTETFb7zne/0DjvssF5VsHuVUfcqg61DZYi9KiN7lcj0KmHoVQV6k3N9XxWK+jjnVgbSGlxr9erV0+etW7euVxnm9G/9QpXBvZe85CXT533/+9/vnXrqqdP3c0z5v1AV+t6xxx7bq8SjNc5vf/vb6zjn+Jb3K8OTnvSkXiUSM86tDLB3zDHHTKdVefx97nOfXlVQepVYzDhnWKgKSe+9733vjGsJZfrlUBl978tf/nL9XNdff33v8MMPr4+tKoPeO97xjhnXdcyHPvShXlX462P23nvv3rXXXjvjmEowevvvv3+vKrj19cu8r8S0d/TRR7c+zxe+8IXewx72sPq4M888s06X5jFlkN+vetWr6uOlvWduHlMV9N7JJ59cp+uTn/zk+h7NY+SpvH3oQx9aXyvH2f9s5aUvfWmvEq5NzhM/z+mc3Xffvbbb/Fsl2L3HP/7x9X1PPPHE3k033TTj3BykA9tyjUrkepXY199L509/+tP19zlO/cIjHvGIXiXkM+zSc5999tm9Sqzr8/PzCPe73/16L3jBCzaxw0kKNC0zsetfLEa2j5x3Hqid1SBqRjWVWl4t6I1LamQ7OLRtr6O29Lua3f5yVWZN/fIz1FjNN8rzJJzLc/Qi5jYq49vkBc2u5X4Wfotv3oFVLegly7wCu2RYjG4nDctpSqr8qO9dGVLtKdoVog0LqgVen3OQX8hisToP1U4calu7VdjWXI1sqymfpeGo5DjxFKR/c4F/hudmqx9xEjcv6HFPbyTjuT3vec+b9oJ4SPLQVj+8KO9ZKPOAF27fODuiuL+9BXfeeec6fXlrdha25ZAdO+ywUaZjjq/g+GE43nH5nDaax/i7JL8oRt6Cxyle7M125NLBrh/WWMt39lGSr83mymvb5JSH7DfbUrlm22YAdpCpBKo+jq2zzUxOD/nCLthsM/6Qv9mmII+ks91J2DSP1Etx3F9+XnrppXX5q8Sv3sqJpz3JTKzQMRBixujti+UdmTICNhnU1GZYjrHdDpdbZpVkQ1dAbSnTb3eKtmaiDCRUtpPuR9t5jEhz0Qt9bCeUv8sbJYq3+NprTXOkDWty7fG15557Tn0zk3zfbLB2Mqk8r1rkNFtsJElUPH9V69YiZJsiBc42SERnXHKTSLOtraA008KecQqWykoTTOHI+94ptAqn5r7vpJP0zthKSzNRBXfcccfVbwYjovACIC8W8iy2EHKuJl1bXswn0rLtuWEHXs1DFZgtrCrvb1qQ5LEuDpWx/fekiy6iUeJrlxB7JaoQNK3tHCIvm6g0CBP7VsG0VejSV1q7dy4XJc34sFcVp/Knifrud7+7LmPSgA3YmJNoa/arfGyJNslM5GCEms3+WPo57FKr7yeLHGQaT8vLZXzWh6Rvph8ycVAYRNvxOfQj/5aPy6KptuUR2XpnWB9gPrctNNG/k7c+8sJqopSPde+8KSMUtn4FdhD5vvm6zdCE0Nr5Vx7pt5KfCo28VTj0PSk4PDX9bfka4qbg2oaJR6OQuVb+nbdiU0/9lPqMeDJ3Nzx2fYj6KfM7LTLER7+b7/V16fMctk1VxjPbK8/zsxdbPfHOmujXJXT6rJuVfUlOQ/83QxNeKrtSwbhu9sbBM5U3PHF9gLk/eJKZSKHTiS1wmRUUBtREcyW79pqEVZu8b6ZNCoyQwaiZFY7ZCE4b9pWTVsjNuLLWVtiIDu+grbbfXPBe8mANYdN8VygIna4JnnZ+R0NOizLvDSRIr9Kbkr8qDU1eTXyVBs/w7oTIsD/xkdZNG+Ths9W8QzVPdVQIZBYZnnC2c0gTewISQWmk0hinW2IQBNW9VJTi7P8yDwigZ2JT4jfOM90dTKTQqR3UKLAXfb9tp9XqDItwSOj5Eo7NhcKrUCgQPBPGMx9ouuURPU35Zu0qXfR1EhrN57uqMpB3mlL6RzW/jMTq9xEPlRcPVz9bCdHOHo+mW9tIpevZIZhguj4P4656pjZUYJ6HQGvGZtvNaG6edNJJteeluTfq+xU8k2av8wkYoZM+2c7Zj2tKL5/1C89XRSbd9bu5n0qK6JVoYXkZtvvrTx00m2ASmEihIwi5A5XI9auldLbLWBlPQJzTFDt/q+00mfzfDM3jM77P5/YL4yB++tI0yXgkjHfQvXkpDFhwrr/9L22a5+kvUbMyznPPPbfuB9SUz55OKQKzFYQcpxyHHHzXFqeMvsjcr+dFLhdccEHtzfI+vFSoGZ+cj/A8bQWXPXjpsgGo3CTvd/+7AmLtWeSVZ/SGfukvXdiJZywrtVHzwDMJmq9EX2VRVmKunb1jXTwGz1Si/ShtKodsW830cz+DKvLCgJaXSWl6Z5uC58hh0plIoSuZDwPm3uv8Vvs0g5qq7R4yT59S2zlquEF9bIxDra42FPStGKXKb83nyfBE+uFcL/R54xvfOB3e8IY31P97z6bmWglB0GmvmQ8DD4z0zDPPrLcNVxDmmo62QV+9enUdB+8oyEG83vWud9XbfbehiUkEvGSH0IuPfkp9bwrmQigkw/A83iSnGS6dTjvttHpOmpFwzyvPx60YS4x4Eh7iKQ2JE1zTIIW/9Zdp3fTDsUS4tClB/vHIDD6UaC2ZU6hCEn8vFTKw5dl0FWlBcR4WChMrdArmsMI5am3ijVM66Y2ANYNMa2tCMgzv+tTHJMjkHIyIGpHqh4m/+++/f13L6pfR12RqB6MXD2+40m/TD4Zr1NFInmBqQg5GbHlEJdKJR+eNZwqc6QvEUHPJZF0jYnmy9WyFheir2d2jGbw7t9m0KfH8vBK4v36n/IavuQrwpGD0VyV04IEH1oMs8tqLk9iOkXs2wcObDexI05CdqrDlBQzyqESloYpDE74fjmFT8ivbVQ7ejqZCbqLZrIXw6le/um6qaprr+lAGDjvssLrS5+GNWg7vTibeoxuHfomtxtUZrw+jGXSq9its+l6M+Aq8sBxcqxwpbOJ7fXCaWIxP8yo3sbxghMHk5lkbmusEy1yxMqxcubI2Op5QG4yRIZrfxNvyJjBxYcxGKk0tGXTfQUgnU3TEwT3KcOihh9YeQD94ISqNnF5GSxXSNi+nTNN+6TupsDPekZU1KhddCrxzUzOkkSkx2RsbBzbEI2aPeUACRI9npWJToQ7qnyOSZirIr6ZdaZY25/ZlCCzPz3Qvx4mHfNNHqsJmWwuhf3xiha408rZE9Lvvy9/6FQzz7jQF1VzN0G9SLsMwiTW/yq88R63omv0yVxNSM4+3aJRR57v5ZLwugwX6cPzWD4ataWuCZhkYqto0zynrh07k17zmNfW9FDz9WcSVV8kDmA36QzWPmnESjJ72e2OXQmAAwkCE5hdB5N0Q3fL1ehnpXnrYC03s9JGxGxWN+WW6FPQlGqTQP0moZoPmqxkGXpeYByTYlfRVYfcbsMtIR9Nc2FAz/7QyBtmU/NCvTKyVBWLJxnXfeCZ5OelMpNAxlmzsuUO3iYxTO/rNZx7UpBQKcddfwvj0nyncmrv6PIy4MVa18XzB2DVn9KWU4uv+7klYCRVvUj/hXQlRs/ZT3BQoE6nFReEgfs1+npyH/pf3bf1AvlPYNeFn4yGVjGszzePZn2fL6V9i2oU5jNkLNz9QGLcJ6548KXZkMIJ3bKYB8dR0JHSDmq3jwoakq2diWyUqNCtVCLgKVUWuO2Wu+bC5mTihk6kKaO5Y1bmrM70JAzNZkXHJ5Lb5S3cXDCWH/DfxMzqneSPeOpbz73PlIx/5SN3xrWlUppU0cg+emBpZ+hCetopjc6CgEDMjg7waTX59VrwTfYb6/JoeJhGUn+LN42sWNJica/UHr5WHNNu+L0iTPKrvnm33y2IG+Vg2EQkO0dY/p6+yLPCu5/q8H0E8edZselx4c/o6De4YgJCm7MjfRHDQQMS4SAOCrH+OB1emSX4mdqz/V6VjIKrfYNSkMJEenZpLbcizMx1DhjZhNAxewdZpOsx1nwTEUUFmHArOXApoiV1aNFEZZnOgAu7nvgw0d2RvbhQI0yHyemTiJug31HEvLQiEpWFlv6GOfE1cea9p1DbjXv+eFR6e27nZ+58N0sQ9kW2qibwyuOM+PPRyHpz01H9l2ZfuiuboJQh3Xn/KA5ttvmt6EjxCp5LQ/zdsNcRs8LyE1GDWeeedVw+sNPE8WVzZV3h0Y6KAKAQ6V3WEylQhF1C/MxYjPr5X25i+MKzfahJQqPI8J8YxX54Vb4GQWbIjlNNJ/G96jQEB9+MViMfmRtOSiJmKw5skbjq8FQ4FVke9SixvwZQhJMRQZSePNc9KL1UhdE3XdwyRymk6GxRYE5B5dWzJcsLSgyFK0k5c8vy9PDlWOrI7Fa3fCLMuibLQE2JCYQ6aexkwIuSzIffTyWMjqNLFaKs0m0+UP/3J8krFqY+1TBPPRNB55dJePpRLNCeRifToYHRTgWBo5mldcskldd+E3TA+9alP1R6MdYOag0YU8zKZSUaTJ9fsDKc0nhIiqGDo/2gL0qA812Jto8BEgGfBU3KMAkYo9KcwWIVS03E2QqdyIUzyoC1OxMD9QVAt5Nd341lMJdHMyRA5wmdpkbzUTHL9jAnGlo95Rh4F783zyG/Nc54cb0Zf0SDR0CwW37agCQkFlfjr53I/XplBBPe74YYb6jW6picp1JprpiSV6afpaLqMIL3NN/Pc4ipNeEbmUMoHzXciPttmJlsnqoQmD2ZJx1GEToU3yKY8nzQFD1QeGRDTmtKva3eW/Ezy1qirikzfo/yd9BbVXbfwcUwUXFMsNF3UpkceeWRdczDM3B9g2Y0lNdbcDRpanxR4XXl0UiHUHGpbDuSZidPxxx8/9c1MdAITf54IeL+mM9jNQyE2DYQX5X68Jd5w3lGF9zsbCIORROnf5onyNmzXIy/0rV1zzTV105X3o3lVLvUiDioxIqePTdNPYTFfDEbCDaJIB9cw2ud5cmHlPZmXxz4GCZ2RbmnSxDPYAeWEE06oRUshNXXCtA3NYnPEpJfv82oAcXvxi19cC10me82e2YCDCdq8LaPbvFdCzvNxXbbqmVTg7pnPHRcVhn5PZYAnL56jNN3lmUqQg9B2b/HVz+v64ie+Rx111LSo6g/ltWkmG9QigPLWIJsdZSadLd9S4QODU9tMEgo0A+MF5cLlswRW2xA/M7cV6CYKt1pUxjAuhWcUMeSBGBWV2dx30zlGgUEQLoZNeBhMbuJk1JR5Qb8miBreM2YUKkZEDJ2rWdYWnGNuX/ZixdW1NGOIgIIpaELx4tTOr3/96+tJzONUCNJcgeLdKAjilJuLzaBi8szixBPStHIvcbLdlGNKCLzmJy9CQZXWnisXWs9jmoZCKU949q5H8HiwJuPysDx7Sc531++Xhr4nzHkSs3v6ni35zDN1X8/vuVUOKhJCRySbiJe4OI44Ol/6swnxIOqEULybtuo+KifNUIIpXm2VX0b+qrxUFvanczy76geR1cVDEAfZlCa5Qas8kd1z+uw7tsrblQeey71VTObRqWz83syHSYBA54npE7+VeoZAGKlk9AoTYxin0N6TkEY8RiLCuIn9JBriqPAeBB6SQjmfI4xNpJMCrcJRuAkdccoV7SjpSAxUEASPx7nQ0x9Em6fOy1b2VKCjeJJ3J+VW6gtG6BiKqE5Fd5qFbkDBcOT5XZnP2dZKyr9HjUuXbdWzEP9JfqZS6CZbkguy0UjYMgTd567O56ZAYTY2V54zznkLAWm0kJ5pwQhdEATBbAmhC4Kg84TQBUHQeULogiDoPCF0QRB0nhC6IAg6TwhdEASdJ4QuCILOE0IXBEHnCaELgqDzhNAFQdB5QuiCIOg8IXRBEHSeELogCDpPCF0QBJ0nhC4Igs4TQhcEQecJoQuCoPOE0AVB0HlC6IIg6DwhdEEQdJ4QuiAIOk8IXRAEnSeELgiCzhNCFwRB5wmhC4Kg84TQBUHQeULogiDoPCF0QRB0nhC6IAg6TwhdEASdJ4QuCILOE0IXBEHnCaELgqDzhNAFQdB5QuiCIOg8IXRBEHSeELogCDpPCF0QBJ0nhC4Igs4TQhcEQecJoQuCoPOE0AVB0HlC6IIg6DwhdEEQdJ4QuiAIOk8IXRAEnSeELgiCzhNCFwRB5wmhC4Kg84TQBUHQeULogiDoPCF0QRB0nhC6IAg6TwhdEASdJ4QuCILOE0IXBEHnCaELgqDzhNAFQdB5QuiCIOg8IXRBEHSeELogCDpPCF0QBJ0nhC4Igs4TQhcEQecJoQuCoPOE0AVB0HlC6IIg6DwhdEEQdJ4QuiAIOk8IXRAEnSeELgiCzhNCFwRB5wmhC4Kg84TQBUHQeULogiDoPCF0QRB0nhC6IAg6TwhdEASdJ4QuCILOE0IXBEHnCaELgqDzhNAFQdB5QuiCIOg8IXRBEHSeELogCDpPCF0QBJ0nhC4Igs4TQhcEQecJoQuCoPOE0AVB0HlC6IIg6DwhdEEQdJ4QuiAIOk8IXRAEnSeELgiCzhNCFwRB5wmhC4Kg84TQBUHQeULogiDoPCF0QRB0nrGEbostthgYBtF2fDMMou34ZhhE2/FlGEbbOWUYRNvxzTCItuObYRBtx5dhGG3nlGEQbcc3wyDajm+GQbQdX4ZBtB3fDINoO74ZBtF2fBmG0XZOGQbRdnwzDKLt+GYYRNvxZRhG85gtehU+rFq1Kl1//fX1l/346U9/OvVpU4ZFwG2mbtXK5j5/UNxxr3sN1vxJfva5xB3x7P2JZ29nITz7ox/96LR8+fL67xlCd8UVV9Rf9mNYxIdxd54/6FzM5fx49sHEs7cTzz6YuT77nnvuOS10g2WxgYv3C6PQdl4Oo9B2Xg7DaDunDMNoOyeHUWg7L4dRaDsvh2G0nVOGYbSdk8MotJ2Xwyi0nZfDMNrOKcMw2s7JYRTazsthFNrOy2EYbeeUYRht5+QwCm3n5TAKbeflMIzmMWMJXRAEwUIkhC4Igs4TQhcEQecJoQuCoPOE0AVB0HlC6IIg6DwhdEEQdJ4QuiAIOk8IXRAEnSeELgiCzhNCFwRB5wmhC4Kg84TQBUHQeULogiDoPCF0QRB0nhC6IAg6TwhdEASdJ4QuCILOE0IXBEHnCaELgqDzhNAFQdB5QuiCIOg8IXRBEHSeELogCDpPCF0QBJ0nhC4Igs4TQhcEQecJoQuCoPOE0AVB0HlC6IIg6DwhdEEQdJ4QuiAIOs8WvQofVq1ala644or6y2BSeWE67t0HpWX3vzldtc/h6fx0SDrrsl3S4q+cn5afctXUMSkd8tYPpl1+YW268GXHpyt98ZSD0nEH7pqWPfje9e933Lo2ffw9x6cLr63/rNghHfSWg9Kuj1uSpo5I677yobTylEvTjfXfG++zbf0Zd6T1N92Q1n7y3ensj248YvqYH+f7Ns+pzvrxzelbX/hQOn/V1umQ+jmmfiipz1+TdpjxnBtZuvsR6fAX7ZC23bp4jr84P1346XX13y9886p00OPWpytfc2S68Jb6q5R2Py6tOmBZuu3v9k6Hv2Pquxbe9KY3pfe///3pxhvz8wQLnT322CMtX768/hwe3YJiUVq0uApb3bv6tPHve2+1KC158m7poIfVX9Qsuu/UcfVfe6WTD98r7bDt4kpo1qV1P74jLd52h7TXocelXerfqyNOPCLt9eTt0uJ0W1q3bl1af+fitN3T9k9veXM+YuN9Fm2V0m3V7+tu3ZC2Wbos7XLwGems5UtmHjN938Y569an9KClaYc9DkvHHfrAtP5W31X32uCYKmxYX/+97tb16SfVuTOfs2KPk9MpB++UllZifZtz83Mcflw67Dc2HrJoq62r87ZPz1qe411xr0Vp6+r6956+UDtPfepT01lnnZUOOuigtNVWVaSDThFC1wUWLU07vmTZ1B8N9tsxbV95TretvTDt+7IVacXLDk+XX78hpW0ek561hwMOSs96wuKU7rwxXXnYAWnFoSvS8tdclW6qftlm+2dVPmTJurSm+n3FK6rjLrsubahkaOnTKs9r6td2ps45dHna95w1aX11znZP2jZ96ijfrUhXfve2+qjbvntl/feKo85O19TfzOSg311WCXFKN350RTrgFZ5j33T2lyrxXLRd2mH3nTYeNMU2y3ZNL576PC577bVXuuCCC9Lzn//8qW+CLhBC1xGWPGGvaQ9tBg9eXHtFG27/j41/V8Jz4feqpt6dlUY8sPpz90elJVtW/9/+k7QuN/duuSmtpz/33yY9auM3m7DufTdVV6pYvHXfYzbhat5axTjn1LwwPerB/r8t/aTy+jJXra+vlrZZ8sT6/2m22j49/eDsaY7PAx7wgLRixYp02mmnpSc+sXHtYEESQtcVtlmWdt136nPJjesreah+ftyuaa/cvL30+LR8z33Tke+pPi8IC6ikmhj3o+W3pTvsP8TTHM5jH/vYdNJJJ6XDDz88PeQhD5n6NliIhNB1gVuuS9fdviht/7RD0iZ+zEcvT5+/uWqqLl6WDnrbWemQp1Tf3bJuozfWl8+nS85ZmVa+9cL0V1PfzGRJ2um1y9J2Pq5fVx09Gkv2225j/MY4Z3xuSzd+u3q6hy1Le+089dUc2Xnnnevm7D777DP1TbDQCKHrAnfelD7+jfXcmLT/VMf8z1iTzj7h4rTmVmK3NL3wqFXpDS8Y1qxbl9Z+9pp0zSfXTI26ZrZLO132wfTBD69KRzy7usaG9enzf3P2ENGcOqcKq/bdPi26c31aM/ScufGTz1fxvnObtGyX2fbUbcqWW26ZDjjggHTeeeelZzzjGVPfBguFELqOcNWH11bisSQt27Olp+6Wy9Pxbzw7XfO9SuwWLUk7HnxGOvlFs+nD2rBxBPXH1XUqbvzYAenUoTOSps6pwo1rr0mXvvXIdPzmnsV05/npc9/ekBY9+unpkEFN3llwxx131CFYWITQdYWvXpTWVO7XNk/YLT2qrXDfck1aeeip6fJv31a5J5W3s98bZ0xJmUklmM/YKe307B3S0qlvNjI1gvq3N1byVTmQTzho49cDyaOuK9Lhx6xMF03NedvcXHrV2rR+y6Vpx522nvpmbtx+++3pwgsvrPvrvvjFL059GywUQug6w7p0/heuSxsWLU1LGwK2ZNmOaZenbF99WpMuPGJlukqfnSkpB/Trrt8x/cGhR6QjXntQ2m3qmxm871vp5jur/x/+mLT/xm8mj6svT2tvqYR/6dJ6Wspc+NjHPpZe/vKXp8svv3zqm2ChEULXJf7y42nt+qnPmUPPS6tOfkN62e55QseadPZV19UjsUsevsPGr8bmynSDqShbbZe2r+fiTSJr00Vc3Dnwta99LR111FF1v9yPfvSjqW+DhUgIXae4Kl3+9UbT8BvrEu1bvO2yNC1r911UL/XaoK/pinWpnmG35aL0s0beNmlriwN+vD7dsPGLBuvSp77rPovTdstmTtbdPFye1t3q/3unRUVLdNlWG5c73HZrn1i+63Pputun/hiDH/7wh/UqCcvCvvnNb059GyxkQug6xtqLjThO/YFPXpm+9YPq/wfvmI4457iqOXpcOm/37dOitCHdfN3Hqx8uSWturJqyW22fXlj/fkQ67pxd09ItKyG8+Wsb18q2sPbam2oB3eaXd5zzfLVRuOSr+gUXpe13Py8dV8XxiKPOSEc8xYDK+vSta/rF8tKNo9FjcNlll9XN1Kuvvnrqm6ALhNB1jVs2jjj+jDXp1Hdentb+YENa/Mgd6gGG7bbakNZde3E6ZRWvbF268E8vTmumf98p7fDIxWnDD9aki8+8dOMl2vjk2nST9u8vbpee1XdQY/5Yt+qUdPG169KGqrm8QxXHnZ6xfdpmy9vSjR89Ox0/QJM2jkYP57Of/Wy9GmL16tXpzjvLmiLoArF7yT0IgxLbP2hDummT+XFT/FoldNsuTrfdfE1ac/3UdxOHEeFK5CpP7rrPjiZiwT2TcveSELogCDpJbNMUBME9ihC6IAg6TwhdEASdJ4QuCILOE0IXBEHnCaELgqDzhNAFQdB5QuiCIOg8IXRBEHSeELogCDpPCF0QBJ0nhC4Igs4TQhcEQecJoQuCoPOE0AVB0HlC6IIg6DwhdEEQdJ4QuiAIOk8IXRAEnSeELgiCzhNCFwRB5wmhC4Kg84TQBUHQeULogiDoPCF0QRB0nhC6IAg6TwhdEASdJ4QuCILOE0IXBEHnCaELgqDzhNAFQdB5QuiCIOg8IXRBEHSeELogCDpPCF0QBJ1ni16FD6tWraq/CIIg6ArLly+v/58WuiAIgm6S0v8DkgedG1S0w2sAAAAASUVORK5CYII=;" parent="1" vertex="1">
                    <mxGeometry x="569" y="1380" width="123.8" height="110" as="geometry"/>
                </mxCell>
                <mxCell id="84" value="" style="rounded=0;whiteSpace=wrap;html=1;shadow=0;fontSize=18;" parent="1" vertex="1">
                    <mxGeometry x="180" y="330" width="590" height="840" as="geometry"/>
                </mxCell>
                <mxCell id="85" value="form" style="text;html=1;strokeColor=none;fillColor=none;align=center;verticalAlign=middle;whiteSpace=wrap;rounded=0;shadow=0;fontSize=18;" parent="1" vertex="1">
                    <mxGeometry x="190" y="330" width="60" height="30" as="geometry"/>
                </mxCell>
                <mxCell id="86" value="&lt;font style=&quot;font-size: 24px;&quot;&gt;nom&lt;/font&gt;" style="rounded=0;whiteSpace=wrap;html=1;" parent="1" vertex="1">
                    <mxGeometry x="230" y="380" width="500" height="40" as="geometry"/>
                </mxCell>
                <mxCell id="87" value="&lt;font style=&quot;font-size: 24px;&quot;&gt;prénom&lt;/font&gt;" style="rounded=0;whiteSpace=wrap;html=1;" parent="1" vertex="1">
                    <mxGeometry x="230" y="430" width="500" height="40" as="geometry"/>
                </mxCell>
                <mxCell id="88" value="&lt;font style=&quot;font-size: 24px;&quot;&gt;telephone&lt;/font&gt;" style="rounded=0;whiteSpace=wrap;html=1;" parent="1" vertex="1">
                    <mxGeometry x="230" y="490" width="500" height="40" as="geometry"/>
                </mxCell>
                <mxCell id="89" value="&lt;font style=&quot;font-size: 24px;&quot;&gt;nombre article en commande&lt;/font&gt;&lt;span style=&quot;color: rgba(0, 0, 0, 0); font-family: monospace; font-size: 0px; text-align: start;&quot;&gt;%3CmxGraphModel%3E%3Croot%3E%3CmxCell%20id%3D%220%22%2F%3E%3CmxCell%20id%3D%221%22%20parent%3D%220%22%2F%3E%3CmxCell%20id%3D%222%22%20value%3D%22%26lt%3Bfont%20style%3D%26quot%3Bfont-size%3A%2024px%3B%26quot%3B%26gt%3Bnom%26lt%3B%2Ffont%26gt%3B%22%20style%3D%22rounded%3D0%3BwhiteSpace%3Dwrap%3Bhtml%3D1%3B%22%20vertex%3D%221%22%20parent%3D%221%22%3E%3CmxGeometry%20x%3D%22230%22%20y%3D%22380%22%20width%3D%22500%22%20height%3D%2240%22%20as%3D%22geometry%22%2F%3E%3C%2FmxCell%3E%3C%2Froot%3E%3C%2FmxGraphModel%3E&lt;/span&gt;" style="rounded=0;whiteSpace=wrap;html=1;" parent="1" vertex="1">
                    <mxGeometry x="229" y="545" width="500" height="40" as="geometry"/>
                </mxCell>
                <mxCell id="90" value="&lt;span style=&quot;font-size: 24px;&quot;&gt;courriel&lt;/span&gt;" style="rounded=0;whiteSpace=wrap;html=1;" parent="1" vertex="1">
                    <mxGeometry x="230" y="600" width="500" height="40" as="geometry"/>
                </mxCell>
                <mxCell id="91" value="&lt;font style=&quot;font-size: 24px;&quot;&gt;courriel&lt;/font&gt;" style="rounded=0;whiteSpace=wrap;html=1;" parent="1" vertex="1">
                    <mxGeometry x="230" y="660" width="500" height="40" as="geometry"/>
                </mxCell>
                <mxCell id="92" value="francais" style="rounded=0;whiteSpace=wrap;html=1;fontSize=24;" parent="1" vertex="1">
                    <mxGeometry x="230" y="720" width="280" height="50" as="geometry"/>
                </mxCell>
                <mxCell id="93" value="anglais" style="rounded=0;whiteSpace=wrap;html=1;fontSize=24;" parent="1" vertex="1">
                    <mxGeometry x="229" y="780" width="280" height="50" as="geometry"/>
                </mxCell>
                <mxCell id="94" value="vietnamien" style="rounded=0;whiteSpace=wrap;html=1;fontSize=24;" parent="1" vertex="1">
                    <mxGeometry x="230" y="840" width="280" height="50" as="geometry"/>
                </mxCell>
                <mxCell id="95" value="" style="ellipse;whiteSpace=wrap;html=1;aspect=fixed;fontSize=24;" parent="1" vertex="1">
                    <mxGeometry x="650" y="730" width="30" height="30" as="geometry"/>
                </mxCell>
                <mxCell id="96" value="" style="ellipse;whiteSpace=wrap;html=1;aspect=fixed;fontSize=24;" parent="1" vertex="1">
                    <mxGeometry x="650" y="790" width="30" height="30" as="geometry"/>
                </mxCell>
                <mxCell id="97" value="" style="ellipse;whiteSpace=wrap;html=1;aspect=fixed;fontSize=24;" parent="1" vertex="1">
                    <mxGeometry x="650" y="850" width="30" height="30" as="geometry"/>
                </mxCell>
                <mxCell id="98" value="recevoir des email de promo" style="rounded=0;whiteSpace=wrap;html=1;fontSize=24;" parent="1" vertex="1">
                    <mxGeometry x="229" y="920" width="360" height="50" as="geometry"/>
                </mxCell>
                <mxCell id="99" value="" style="rounded=0;whiteSpace=wrap;html=1;fontSize=24;" parent="1" vertex="1">
                    <mxGeometry x="650" y="930" width="30" height="30" as="geometry"/>
                </mxCell>
                <mxCell id="100" value="&lt;font style=&quot;font-size: 72px;&quot;&gt;submit&lt;/font&gt;" style="rounded=0;whiteSpace=wrap;html=1;fontSize=24;" parent="1" vertex="1">
                    <mxGeometry x="229" y="1000" width="501" height="130" as="geometry"/>
                </mxCell>
            </root>
        </mxGraphModel>
    </diagram>
</mxfile>